<svg xmlns="http://www.w3.org/2000/svg" xmlns:xlink="http://www.w3.org/1999/xlink" width="56.013" height="22.016" viewBox="0 0 56.013 22.016">
  <defs>
    <clipPath id="clip-path">
      <path id="Path_7" data-name="Path 7" d="M4.693-17.243H.665v-9.8H2.143v8.329h2.55Zm3.355-9.925a2.256,2.256,0,0,1,1.662.688,2.266,2.266,0,0,1,.684,1.658v5.349a2.256,2.256,0,0,1-.688,1.662,2.266,2.266,0,0,1-1.658.684,2.243,2.243,0,0,1-1.658-.688,2.273,2.273,0,0,1-.68-1.658v-5.349A2.256,2.256,0,0,1,6.4-26.483,2.257,2.257,0,0,1,8.048-27.167Zm.806,2.315a.815.815,0,0,0-.246-.6.815.815,0,0,0-.6-.246.828.828,0,0,0-.6.246.808.808,0,0,0-.25.6v5.365a.808.808,0,0,0,.25.6.828.828,0,0,0,.6.246.815.815,0,0,0,.6-.246.815.815,0,0,0,.246-.6Zm7.641,5.17a2.756,2.756,0,0,1-.532,1.752,1.916,1.916,0,0,1-1.017.7,2.772,2.772,0,0,1-.821.109,2.324,2.324,0,0,1-1.439-.43,2.406,2.406,0,0,1-.755-.958,3.865,3.865,0,0,1-.325-1.388l1.408-.1a2.122,2.122,0,0,0,.454,1.236.758.758,0,0,0,.61.274.917.917,0,0,0,.774-.477A1.184,1.184,0,0,0,15-19.62a1.8,1.8,0,0,0-.555-1.212l-1.314-1.244a5.608,5.608,0,0,1-1.04-1.275,2.946,2.946,0,0,1-.328-1.376,2.393,2.393,0,0,1,.9-2.026,2.236,2.236,0,0,1,1.376-.415,2.5,2.5,0,0,1,1.353.352,2.033,2.033,0,0,1,.708.766,2.836,2.836,0,0,1,.325,1.134l-1.416.258a1.706,1.706,0,0,0-.344-.939.722.722,0,0,0-.587-.242.676.676,0,0,0-.618.36,1.387,1.387,0,0,0-.172.72,2.159,2.159,0,0,0,.579,1.369,4.89,4.89,0,0,0,.657.626q.516.43.68.6a5.015,5.015,0,0,1,.845,1.079,4.136,4.136,0,0,1,.227.461A2.687,2.687,0,0,1,16.495-19.683Zm2.753.188-.36,2.252H17.347l1.666-9.8h2.033l1.642,9.8H21.14L20.788-19.5Zm.774-5.3-.547,3.863h1.095ZM25.6-27.05l1.955,6.585V-27.05h1.478v9.807H27.444l-2.033-6.28v6.28H23.932V-27.05Zm7.078,9.932a2.256,2.256,0,0,1-1.662-.688,2.257,2.257,0,0,1-.684-1.65v-5.349a2.256,2.256,0,0,1,.688-1.662,2.266,2.266,0,0,1,1.658-.684,2.243,2.243,0,0,1,1.658.688,2.273,2.273,0,0,1,.68,1.658v1.118H33.481v-1.15a.821.821,0,0,0-.25-.6.821.821,0,0,0-.6-.25.808.808,0,0,0-.6.25.828.828,0,0,0-.246.6v5.365a.815.815,0,0,0,.246.6.815.815,0,0,0,.6.246.828.828,0,0,0,.6-.246.808.808,0,0,0,.25-.6V-21.4H32.66v-1.478h2.354v3.426a2.243,2.243,0,0,1-.688,1.658A2.264,2.264,0,0,1,32.676-17.117Zm3.621-.125V-27.05H40.5v1.478H37.775v2.683h1.994V-21.4H37.775v2.683H40.5v1.478Zm9.252,0H41.521v-9.8H43v8.329h2.55Zm1.017,0V-27.05h4.208v1.478H48.044v2.683h1.994V-21.4H48.044v2.683h2.729v1.478Zm10.112-2.44a2.756,2.756,0,0,1-.532,1.752,1.916,1.916,0,0,1-1.017.7,2.772,2.772,0,0,1-.821.109,2.324,2.324,0,0,1-1.439-.43,2.406,2.406,0,0,1-.755-.958A3.866,3.866,0,0,1,51.79-19.9L53.2-20a2.123,2.123,0,0,0,.454,1.236.758.758,0,0,0,.61.274.917.917,0,0,0,.774-.477,1.184,1.184,0,0,0,.149-.649,1.8,1.8,0,0,0-.555-1.212l-1.314-1.244a5.608,5.608,0,0,1-1.04-1.275,2.946,2.946,0,0,1-.328-1.376,2.393,2.393,0,0,1,.9-2.026,2.236,2.236,0,0,1,1.376-.415,2.5,2.5,0,0,1,1.353.352,2.033,2.033,0,0,1,.708.766,2.836,2.836,0,0,1,.325,1.134l-1.416.258a1.706,1.706,0,0,0-.344-.939.722.722,0,0,0-.587-.242.676.676,0,0,0-.618.36,1.387,1.387,0,0,0-.172.72,2.159,2.159,0,0,0,.579,1.369,4.89,4.89,0,0,0,.657.626q.516.43.68.6a5.015,5.015,0,0,1,.845,1.079,4.136,4.136,0,0,1,.227.461A2.687,2.687,0,0,1,56.678-19.683Z" transform="translate(-0.665 27.167)" fill="none"/>
    </clipPath>
    <linearGradient id="linear-gradient" x1="0.01" y1="0.03" x2="0.01" y2="36.601" gradientUnits="objectBoundingBox">
      <stop offset="0"/>
      <stop offset="0" stop-color="#575757"/>
      <stop offset="0.1" stop-color="#575757"/>
      <stop offset="0.2" stop-color="#575758"/>
      <stop offset="0.3" stop-color="#575758"/>
      <stop offset="0.4" stop-color="#575758"/>
      <stop offset="0.5" stop-color="#575759"/>
      <stop offset="0.6" stop-color="#575759"/>
      <stop offset="0.7" stop-color="#575759"/>
      <stop offset="0.8" stop-color="#575759"/>
      <stop offset="0.9" stop-color="#57575a"/>
      <stop offset="1" stop-color="#57575a"/>
      <stop offset="1"/>
    </linearGradient>
    <linearGradient id="linear-gradient-2" x1="0.5" y1="0.03" x2="0.5" y2="0.47" gradientUnits="objectBoundingBox">
      <stop offset="0" stop-color="#575757"/>
      <stop offset="0.1" stop-color="#575757"/>
      <stop offset="0.2" stop-color="#575758"/>
      <stop offset="0.3" stop-color="#575758"/>
      <stop offset="0.4" stop-color="#575758"/>
      <stop offset="0.5" stop-color="#575759"/>
      <stop offset="0.6" stop-color="#575759"/>
      <stop offset="0.7" stop-color="#575759"/>
      <stop offset="0.8" stop-color="#575759"/>
      <stop offset="0.9" stop-color="#57575a"/>
      <stop offset="1" stop-color="#57575a"/>
    </linearGradient>
    <clipPath id="clip-path-2">
      <path id="Path_10" data-name="Path 10" d="M5.549-2.2H3.941v-10.67H6.247l1.5,7.649,1.438-7.649H11.4V-2.2H9.795v-6.7L8.4-2.2H7.106L5.549-8.89ZM15.36-13a2.455,2.455,0,0,1,1.808.749,2.466,2.466,0,0,1,.745,1.8v5.82a2.455,2.455,0,0,1-.749,1.808,2.466,2.466,0,0,1-1.8.745,2.441,2.441,0,0,1-1.8-.749,2.473,2.473,0,0,1-.74-1.8v-5.82a2.455,2.455,0,0,1,.749-1.808A2.456,2.456,0,0,1,15.36-13Zm.876,2.519a.886.886,0,0,0-.268-.651.886.886,0,0,0-.651-.268.9.9,0,0,0-.655.268.879.879,0,0,0-.272.651v5.837a.879.879,0,0,0,.272.651.9.9,0,0,0,.655.268.886.886,0,0,0,.651-.268.886.886,0,0,0,.268-.651Zm5.624,8.4a2.455,2.455,0,0,1-1.8-.74,2.445,2.445,0,0,1-.74-1.8v-8.245H20.89v8.228a.879.879,0,0,0,.272.651.9.9,0,0,0,.655.268.886.886,0,0,0,.651-.268.886.886,0,0,0,.268-.651v-8.228h1.676v8.245a2.423,2.423,0,0,1-.749,1.8A2.488,2.488,0,0,1,21.86-2.083Zm5.794-10.789,2.127,7.164v-7.164H31.39V-2.2H29.663L27.45-9.035V-2.2H25.842v-10.67Zm6.739,1.617h-1.71v-1.608H37.7v1.608H36V-2.2H34.394Zm5.207,6.6L39.21-2.2H37.533l1.812-10.661h2.212L43.345-2.2H41.66l-.383-2.451Zm.842-5.769-.6,4.2h1.191ZM46.306-2.2H44.7V-12.864h1.608Zm3.25-10.67,2.127,7.164v-7.164h1.608V-2.2H51.564L49.352-9.035V-2.2H47.744v-10.67Zm10.4,8.015a3,3,0,0,1-.579,1.906,2.084,2.084,0,0,1-1.106.757,3.016,3.016,0,0,1-.893.119,2.529,2.529,0,0,1-1.566-.468,2.618,2.618,0,0,1-.821-1.042,4.205,4.205,0,0,1-.353-1.51l1.532-.111a2.309,2.309,0,0,0,.494,1.344.825.825,0,0,0,.664.3,1,1,0,0,0,.842-.519,1.288,1.288,0,0,0,.162-.706,1.96,1.96,0,0,0-.6-1.319L56.3-7.461a6.1,6.1,0,0,1-1.132-1.387,3.2,3.2,0,0,1-.357-1.5,2.6,2.6,0,0,1,.978-2.2,2.433,2.433,0,0,1,1.5-.451,2.722,2.722,0,0,1,1.472.383,2.212,2.212,0,0,1,.77.834,3.086,3.086,0,0,1,.353,1.234l-1.54.281a1.856,1.856,0,0,0-.374-1.021.786.786,0,0,0-.638-.264.735.735,0,0,0-.672.391,1.509,1.509,0,0,0-.187.783,2.349,2.349,0,0,0,.63,1.489,5.32,5.32,0,0,0,.715.681q.562.468.74.655a5.457,5.457,0,0,1,.919,1.174,4.5,4.5,0,0,1,.247.5A2.923,2.923,0,0,1,59.954-4.857Z" transform="translate(-3.941 13)" fill="none"/>
    </clipPath>
    <linearGradient id="linear-gradient-3" x1="0.056" y1="0.536" x2="0.056" y2="37.107" gradientUnits="objectBoundingBox">
      <stop offset="0"/>
      <stop offset="0" stop-color="#49597a"/>
      <stop offset="0.1" stop-color="#465676"/>
      <stop offset="0.2" stop-color="#445372"/>
      <stop offset="0.3" stop-color="#414f6d"/>
      <stop offset="0.4" stop-color="#3f4c69"/>
      <stop offset="0.5" stop-color="#3c4965"/>
      <stop offset="0.6" stop-color="#394661"/>
      <stop offset="0.7" stop-color="#37435d"/>
      <stop offset="0.8" stop-color="#343f58"/>
      <stop offset="0.9" stop-color="#323c54"/>
      <stop offset="1" stop-color="#2f3950"/>
      <stop offset="1"/>
    </linearGradient>
    <linearGradient id="linear-gradient-4" x1="0.507" y1="0.536" x2="0.507" y2="0.975" gradientUnits="objectBoundingBox">
      <stop offset="0" stop-color="#49597a"/>
      <stop offset="0.1" stop-color="#465676"/>
      <stop offset="0.2" stop-color="#445372"/>
      <stop offset="0.3" stop-color="#414f6d"/>
      <stop offset="0.4" stop-color="#3f4c69"/>
      <stop offset="0.5" stop-color="#3c4965"/>
      <stop offset="0.6" stop-color="#394661"/>
      <stop offset="0.7" stop-color="#37435d"/>
      <stop offset="0.8" stop-color="#343f58"/>
      <stop offset="0.9" stop-color="#323c54"/>
      <stop offset="1" stop-color="#2f3950"/>
    </linearGradient>
  </defs>
  <g id="Group_10" data-name="Group 10" transform="translate(-0.665 27.167)">
    <g id="Group_4" data-name="Group 4" transform="translate(0.665 -27.167)" clip-path="url(#clip-path)">
      <g id="Group_2" data-name="Group 2" transform="translate(-0.543 -0.679)" opacity="0">
        <g id="Group_1" data-name="Group 1" transform="translate(0 0)">
          <path id="Path_5" data-name="Path 5" d="M-.665-.833h57.1V22.006H-.665Z" transform="translate(0.665 0.833)" fill="url(#linear-gradient)"/>
        </g>
      </g>
      <g id="Group_3" data-name="Group 3" transform="translate(-0.543 -0.679)">
        <path id="Path_6" data-name="Path 6" d="M-.665-.833h57.1V22.006H-.665Z" transform="translate(0.665 0.833)" fill="url(#linear-gradient-2)"/>
      </g>
    </g>
    <g id="Group_8" data-name="Group 8" transform="translate(0.665 -16.077)" clip-path="url(#clip-path-2)">
      <g id="Group_6" data-name="Group 6" transform="translate(-3.497 -13.311)" opacity="0">
        <g id="Group_5" data-name="Group 5">
          <path id="Path_8" data-name="Path 8" d="M-3.941-15h62.12V9.848H-3.941Z" transform="translate(3.941 15)" fill="url(#linear-gradient-3)"/>
        </g>
      </g>
      <g id="Group_7" data-name="Group 7" transform="translate(-3.497 -13.311)">
        <path id="Path_9" data-name="Path 9" d="M-3.941-15h62.12V9.848H-3.941Z" transform="translate(3.941 15)" fill="url(#linear-gradient-4)"/>
      </g>
    </g>
  </g>
</svg>
